<?xml version="1.0" encoding="utf-8"?>
<!-- Generator: Adobe Illustrator 26.0.3, SVG Export Plug-In . SVG Version: 6.00 Build 0)  -->
<svg version="1.0" id="katman_1" xmlns="http://www.w3.org/2000/svg" xmlns:xlink="http://www.w3.org/1999/xlink" x="0px" y="0px"
	 viewBox="0 0 600 450" style="enable-background:new 0 0 600 450;" xml:space="preserve">
<style type="text/css">
	.st0{fill-rule:evenodd;clip-rule:evenodd;fill:#1DAE87;}
	.st1{fill:#010202;}
</style>
<path class="st0" d="M128.1,156.7c14.4,0,27.1,1.2,34.9,3c15.4,3.2,27.6,15.4,30.8,30.8c1.8,7.7,3,20.5,3,34.9
	c0,14.4-1.2,27.1-3,34.9c-3.2,15.4-15.4,27.6-30.8,30.8c-7.7,1.8-20.5,3-34.9,3c-14.4,0-27.1-1.2-34.9-3
	c-15.4-3.2-27.6-15.4-30.8-30.8c-1.8-7.7-3-20.5-3-34.9c0-14.4,1.2-27.1,3-34.9c3.2-15.4,15.4-27.6,30.8-30.8
	C101,157.9,113.7,156.7,128.1,156.7z M137.1,256c3.4,0.7,6.1,3,7.4,6.1c0.4,1,1.5,1.7,2.6,1.6c0.3,0,0.6-0.1,0.9-0.1
	c5.4-0.5,9.6-1.3,12.1-2.2l0,0c1.7-0.6,2.8-2.2,2.8-4.1c0,0,0-0.1,0-0.1c0,0,0-0.1,0-0.1c0,0,0-0.1,0-0.1l0-0.1c0,0,0-0.1,0-0.1
	c-0.4-5.6-3.8-18.7-8.9-33.7c-5.8-17.1-11.9-31-14.6-33.7l0,0c-0.4-0.5-0.9-0.8-1.5-1.1c-0.2-0.1-0.5-0.2-0.8-0.4l0,0
	c-1.8-0.6-5.1-1-8.9-1c-3.8,0-7.1,0.4-8.9,1l0,0c-0.3,0.1-0.6,0.2-0.8,0.4c-0.6,0.3-1.1,0.7-1.5,1.1c-2.7,2.7-8.8,16.6-14.6,33.7
	c-5.1,15-8.5,28.1-8.9,33.7c0,0,0,0.1,0,0.1l0,0.1c0,0.1,0,0.2,0,0.2c0,0,0,0.1,0,0.1c0,1.9,1.2,3.5,2.8,4.1l0,0
	c2.5,0.9,6.7,1.6,12.1,2.2c0.2,0,0.5,0,0.7,0.1c1.2,0.1,2.2-0.5,2.7-1.6c1.3-3.1,4.1-5.4,7.4-6.1c2-0.5,5.3-0.8,9.1-0.8
	C131.8,255.2,135.1,255.5,137.1,256z"/>
<path class="st1" d="M278.8,202.5h13.1v57.3h-13.1v-10.1c-4.1,7.1-11.1,11.2-20.3,11.2c-15.2,0-27.4-13.3-27.4-29.8
	c0-16.5,12.2-29.7,27.4-29.7c9.1,0,16.2,4.1,20.3,11.2V202.5z M475.3,202.5h13.1v57.3h-13.1v-10.1c-4.1,7.1-11.1,11.2-20.3,11.2
	c-15.2,0-27.4-13.3-27.4-29.8c0-16.5,12.2-29.7,27.4-29.7c9.1,0,16.2,4.1,20.3,11.2V202.5z M261.6,248.5c10,0,17.5-7.5,17.5-17.4
	c0-9.8-7.5-17.3-17.5-17.3c-9.7,0-17.5,7.7-17.5,17.3C244.2,240.7,251.9,248.5,261.6,248.5z M457.4,248.5c10,0,17.5-7.5,17.5-17.4
	c0-9.8-7.5-17.3-17.5-17.3c-9.7,0-17.5,7.7-17.5,17.3C440,240.7,447.7,248.5,457.4,248.5z M311.6,173.9c4.6,0,8.4,3.9,8.4,8.3
	c0,4.7-3.9,8.4-8.4,8.4c-4.6,0-8.3-3.7-8.3-8.4C303.2,177.7,307,173.9,311.6,173.9z M305.1,202.3h13v57.3h-13V202.3z M359,201.2
	c2.5,0,4.9,0.4,6.7,1c1,0.4,1.9,0.8,2.6,1.2l-5.3,11.1c-1.7-0.5-3.5-0.8-5.3-0.8c-6.3,0-13.4,5.3-13.4,15.3v30.5h-13v-57.3h13v8.2
	C346.9,205,353.4,201.2,359,201.2z M424.3,245.1c-4.3,9.5-14.4,15.7-26.4,15.7c-17,0-30-12.8-30-29.7c0-17,12.9-29.8,29.9-29.8
	c11.1,0,20.5,5.5,24.7,13.9l-11,6.2c-2.3-4.6-7.5-7.6-13.7-7.6c-9.8,0-17,7.5-17,17.3c0,9.7,7.3,17.2,17.1,17.2
	c6.7,0,12.2-3.2,14.8-8.4L424.3,245.1z M514.6,173.9v85.7h-13v-85.7H514.6z M540.8,173.9v85.7h-13v-85.7H540.8z"/>
</svg>
