<?xml version="1.0" encoding="utf-8"?>
<!-- Generator: Adobe Illustrator 25.2.0, SVG Export Plug-In . SVG Version: 6.00 Build 0)  -->
<svg version="1.1" id="katman_1" xmlns="http://www.w3.org/2000/svg" xmlns:xlink="http://www.w3.org/1999/xlink" x="0px" y="0px"
	 viewBox="0 0 3728.08 2707.07" style="enable-background:new 0 0 3728.08 2707.07;" xml:space="preserve">
<style type="text/css">
	.st0{fill:#7A3E65;}
	.st1{fill:#CFB2C1;}
	.st2{fill:#512843;}
	.st3{fill:#C17B9E;}
</style>
<path class="st0" d="M2539.08,589.16l215.43-55.47l1.6,2.37l5.44,1300.78l-7.05,7.07l-44.39,1.9l-168.52-26.23l-2.52-6.64V589.16
	 M1293.14,1934.27l0.79,0.06l568.66,165.24l1.45,1.11l2.47,1.97l-0.8,495.14l-1.67,2.11l-570.9-277.35L1293.14,1934.27"/>
<path class="st1" d="M2539.08,1812.93l-674.1,161.44l-338.45-81.7l-233.39,41.6l570.9,166.41l881.12-238.55l9.35-18.22
	L2539.08,1812.93"/>
<path class="st2" d="M2434.94,769.43l-5.49-6.26l-559.28-162.51l-6.14,2.37l-5.62-2.87L978.38,853.93l-4.81,5.88l7.06,3.87
	l201.25,29.51l7.11-2.42l674.1-161.43l338.45,81.7L2434.94,769.43"/>
<path class="st3" d="M1189,2114.55l-215.43,52l-0.38-1.25l-8.48-1295.92l8.86-9.58L1189,890.77V2114.55"/>
<path class="st0" d="M1479.84,1611.86l384.2,45.07l2.88-4.31l1.56-600.93l-4.45-4.92l-384.2,45.07V1611.86"/>
<path class="st3" d="M2248.24,1611.86l-384.2,45.07v-610.16l384.2,45.07V1611.86 M2434.94,769.43l-570.9-166.4V103.81l570.9,277.34
	V769.43"/>
<path class="st0" d="M1864.04,103.81l-1070,516.55v1462.98l179.53,83.21V859.8l890.47-256.77V103.81"/>
<path class="st3" d="M2754.51,533.69V1843.9l-890.47,256.78v499.22l1070-516.56V620.36L2754.51,533.69"/>
</svg>
