<?xml version="1.0" encoding="UTF-8"?>
<svg id="Layer_1" data-name="Layer 1" xmlns="http://www.w3.org/2000/svg" version="1.1" viewBox="0 0 512 512">
  <defs>
    <style>
      .cls-1 {
        fill: #ff5252;
      }

      .cls-1, .cls-2, .cls-3 {
        stroke-width: 0px;
      }

      .cls-2 {
        fill: #000;
      }

      .cls-3 {
        fill: #4c00ff;
      }
    </style>
  </defs>
  <path class="cls-2" d="M498.86,251.36v33.58h-12.33v-31.36c0-7.64-3.29-11.9-9.69-11.9s-10.62,4.48-11.82,11.99c-.34,1.79-.43,4.57-.43,10.41v20.82h-12.33v-53.33h10.92c.04.47.3,5.25.3,5.55,0,.38.47.6.77.34,4.52-3.58,9.51-6.91,16.47-6.91,11.43,0,18.13,7.72,18.13,20.82h0Z"/>
  <path class="cls-2" d="M432.38,231.61l-.38,6.1c-.04.38-.51.6-.77.34-1.49-1.41-7-7.47-16.34-7.47-13.4,0-23.25,11.56-23.25,27.26s9.77,27.52,23.25,27.52c9,0,14.51-5.85,15.53-7.13.3-.34.85-.13.85.3-.13,1.62-.34,5.67-1.71,9.13-1.71,4.35-5.55,8.41-13.27,8.41-6.36,0-11.99-2.43-17.32-7.64l-6.44,8.83c5.85,6.61,15.06,10.33,25.09,10.33,16.13,0,25.81-11.05,25.81-29.1v-46.89h-11.05ZM417.54,274.19c-7.98,0-13.61-6.91-13.61-16.34s5.63-16.17,13.61-16.17,13.61,6.7,13.61,16.17c-.04,9.47-5.67,16.34-13.61,16.34Z"/>
  <path class="cls-2" d="M365.87,269.11c0,10.11-8.49,16.9-20.95,16.9-9.77,0-18.47-3.8-23.68-9.22l4.05-9.64c3.93,3.54,10.24,8.62,19.24,8.62,6.27,0,9.9-2.77,9.9-6.27,0-4.05-4.99-5.12-10.97-6.27-8.49-1.79-19.75-4.69-19.75-16.26,0-9.69,7.85-16.34,19.46-16.34,8.92,0,16.6,3.41,21.89,7.85l-6.06,8.49c-5.12-4.05-10.5-6.06-15.83-6.06s-7.98,2.22-7.98,5.42c0,4.48,5.76,5.63,9.98,6.49,10.62,2.05,20.69,5.25,20.69,16.3h.01Z"/>
  <path class="cls-2" d="M185.56,230.54c-15.06,0-25.9,11.69-25.9,27.73s10.84,27.73,25.9,27.73,25.94-11.69,25.94-27.73-10.84-27.73-25.94-27.73ZM185.56,274.83c-7.98,0-13.61-6.78-13.61-16.6s5.5-16.6,13.61-16.6,13.61,6.78,13.61,16.6-5.63,16.6-13.61,16.6Z"/>
  <path class="cls-2" d="M215.85,258.28c0-15.83,10.84-27.73,25.3-27.73,11.48,0,19.88,5.76,23.81,16.6l-10.92,4.14c-2.99-6.7-6.91-9.56-12.84-9.56-7.42,0-12.97,7-12.97,16.6s5.5,16.6,12.97,16.6c5.97,0,9.86-2.86,12.84-9.56l10.92,4.14c-3.93,10.84-12.33,16.6-23.81,16.6-14.46-.09-25.3-11.99-25.3-27.82h0Z"/>
  <path class="cls-2" d="M149.93,206.82c-.21,0-.47.04-.68.17l-8.02,4.27c-.17.09-.26.26-.26.43v25.39c0,.43-.51.6-.81.34-1.19-1.02-3.97-3.63-7.81-5.42-2.01-.94-4.95-1.45-7.64-1.45-13.48,0-23.25,11.69-23.25,27.73s9.77,27.73,23.25,27.73c7.08,0,12.42-3.71,15.66-7.04.21-.21.34-.34.55-.55.3-.3.81-.13.81.3l.43,6.23h11.14v-77.78c0-.17-.13-.34-.34-.34h-3.03ZM127.36,274.83c-8.06,0-13.61-6.78-13.61-16.6s5.67-16.55,13.61-16.55,13.61,6.78,13.61,16.6-5.5,16.55-13.61,16.55h0Z"/>
  <path class="cls-2" d="M380.37,231.78l-7.72,4.1c-.17.09-.26.26-.26.43v48.64h12.33v-53.03c0-.17-.13-.34-.34-.34h-3.33c-.26.04-.47.09-.68.21h0Z"/>
  <circle class="cls-2" cx="378.54" cy="215.52" r="7.42"/>
  <path class="cls-2" d="M316.8,231.57v28.97c0,21.97-12.29,25.43-23.25,25.43s-23.25-3.5-23.25-25.43v-28.97h12.29v32.04c0,3.11.77,11.22,10.97,11.22s10.97-8.06,10.97-11.22v-32.04h12.29-.02Z"/>
  <path class="cls-2" d="M505.9,279.48v.77h-1.75v4.65h-.85v-4.65h-1.75v-.77h4.35ZM512,284.9h-.85v-4.27l-1.66,3.2h-.47l-1.66-3.16v4.22h-.85v-5.42h1.11l1.62,3.11,1.62-3.11h1.11l.04,5.42h0Z"/>
  <path class="cls-3" d="M59.52,264.08v21.12c0,1.11-.9,2.01-2.01,2.01H2.01c-1.11,0-2.01-.9-2.01-2.01v-55.47c0-1.11.9-2.01,2.01-2.01h21.08v34.35c0,1.11.9,2.01,2.01,2.01h34.43,0Z"/>
  <path class="cls-1" d="M82.65,234.3c0,17.75-10.37,29.74-23.13,29.78v-22.36c0-.64-.26-1.28-.73-1.71l-11.61-11.61c-.47-.47-1.07-.73-1.71-.73h-22.36v-21.08c0-1.11.9-2.01,2.01-2.01h31.27c14.85-.04,26.24,11.9,26.24,29.7l.02.02Z"/>
  <path class="cls-2" d="M58.79,239.97c.47.47.73,1.07.73,1.71v22.36H25.13c-1.11,0-2.01-.9-2.01-2.01v-34.35h22.36c.64,0,1.28.26,1.71.73l11.61,11.56h0Z"/>
</svg>