<?xml version="1.0" encoding="UTF-8"?>
<svg id="katman_1" data-name="katman 1" xmlns="http://www.w3.org/2000/svg" version="1.1" viewBox="0 0 841.89 595.28">
  <defs>
    <style>
      .cls-1, .cls-2 {
        fill: #000;
        stroke-width: 0px;
      }

      .cls-2 {
        fill-rule: evenodd;
      }
    </style>
  </defs>
  <path class="cls-2" d="M269.88,262.28c-19.17,0-34.77,15.71-34.77,35.03s15.42,34.86,34.45,35.03h.32c19.17,0,34.77-15.71,34.77-35.03s-15.6-35.03-34.77-35.03ZM269.88,318.25c-10.97,0-19.34-9.39-19.34-20.93s8.37-20.93,19.34-20.93,19.34,9.39,19.34,20.93-8.37,20.93-19.34,20.93Z"/>
  <path class="cls-2" d="M635.79,279.92c-14.41,0-26.14,11.77-26.14,26.23s11.72,26.23,26.14,26.23,26.13-11.77,26.13-26.23-11.72-26.23-26.13-26.23ZM635.79,321.17c-7.87,0-13.15-6.43-13.15-15.02s5.28-15.02,13.15-15.02,13.14,6.43,13.14,15.02-5.28,15.02-13.14,15.02Z"/>
  <path class="cls-2" d="M342.03,280.22c13.71,0,24.18,11.31,24.18,26.04s-10.48,26.14-25.26,26.14c-6.6,0-13.21-2.64-17.43-7.52v20.59h-14.49v-63.7h13.71v11.23c4-8.93,10.83-12.79,19.29-12.79ZM323.52,306.27c-.1,8.78,6.17,15.41,14.39,15.41s13.61-6.54,13.61-15.41-5.38-15.31-13.61-15.31-14.49,6.54-14.39,15.31Z"/>
  <path class="cls-1" d="M459.82,279.75c12.83,0,20.66,9.07,20.66,23.8v27.51h-14.39v-26.53c0-8.97-4.3-13.95-11.94-13.95-6.95,0-13.51,6.15-13.51,13.95v26.53h-14.49v-49.45h13.12v11.51c5.26-9.32,12.74-13.36,20.56-13.36Z"/>
  <path class="cls-1" d="M604.73,303.5c0-14.53-7.93-23.61-20.86-23.8-6.51-.08-13.51,3.23-19.19,10.98v-26.97h-14.39v67.3h14.39v-26.53c0-7.8,6.66-13.95,13.61-13.95,7.73,0,12.04,4.97,12.04,13.95v26.53h14.39v-27.51Z"/>
  <path class="cls-1" d="M700.53,279.75c12.83,0,20.66,9.07,20.66,23.8v27.51h-14.39v-26.53c0-8.97-4.3-13.95-11.94-13.95-6.95,0-13.51,6.15-13.51,13.95v26.53h-14.49v-49.45h13.12v11.51c5.26-9.32,12.74-13.36,20.56-13.36Z"/>
  <path class="cls-2" d="M487.6,263.75h36.13c12.63,0,21.63,9.46,21.63,22.73s-9,22.63-21.63,22.63h-20.95v21.95h-15.17v-67.3ZM519.71,297.6c5.97,0,9.79-4.29,9.79-11.12s-3.82-11.02-9.79-11.02h-16.93v22.14h16.93Z"/>
  <path class="cls-2" d="M369.5,306.16c0-14.46,11.72-26.23,26.13-26.23,14.41,0,26.13,11.77,26.13,26.23,0,1.51-.13,3.02-.39,4.51h-9.29s-29,0-29,0l.23.69c1.47,6.2,6.31,10.38,12.33,10.38,4.38,0,8.09-1.72,10.21-4.71h13.57c-4.25,9.36-13.5,15.37-23.78,15.37-14.41,0-26.14-11.77-26.14-26.23ZM383.21,301.23l.07-.21c1.44-6.25,5.74-10.44,12.35-10.44s10.9,4.2,12.35,10.44l.07.21h-24.83Z"/>
  <path class="cls-1" d="M395.63,279.92h0,0,0Z"/>
  <path class="cls-2" d="M751.71,279.92c-14.41,0-26.13,11.77-26.13,26.23s11.72,26.23,26.14,26.23c10.28,0,19.53-6.01,23.78-15.37h-13.57c-2.12,3-5.84,4.71-10.21,4.71-6.57,0-10.86-4.17-12.33-10.38l-.22-.69h29s9.29,0,9.29,0c.26-1.48.39-3,.39-4.51,0-14.46-11.72-26.23-26.13-26.23ZM739.36,301.02l-.06.21h24.83l-.07-.21c-1.44-6.24-5.73-10.44-12.35-10.44s-10.91,4.19-12.35,10.44Z"/>
  <path class="cls-1" d="M751.71,279.92h0,0,0Z"/>
  <path class="cls-1" d="M151.1,247.49c22.42,0,42.01,15.13,47.69,36.81,5.68,21.68-3.98,44.47-23.52,55.46-19.54,10.99-44.03,7.42-59.61-8.69,13.97-5.65,23.11-19.21,23.11-34.28s-9.14-28.63-23.11-34.28c9.18-9.51,21.79-14.92,34.99-15.02h.44ZM72.39,274.36c10.11-13.25,27.83-18.1,43.28-11.84-18.49,19.11-18.49,49.45,0,68.56-15.45,6.25-33.17,1.4-43.28-11.84-10.11-13.25-10.11-31.62,0-44.87Z"/>
</svg>