<svg xmlns="http://www.w3.org/2000/svg" viewBox="0 0 419.55 152.51"><defs><style>.a{fill:#0088ce;}</style></defs><title>Artboard 1</title><path class="a" d="M40.4,32.23c-.66-12,17-20.72,30.42-20.54,7.15.09,12.59,2.61,11.77,7.39-.54,3.18-3.85,6.77-8.33,8.14-1.34.42-1.82,1-1.82,2.12,0,1.73,5.13,5,9.3,5,9.52,0,17.86-6.4,17.86-15.62C99.59,7.79,85.93,0,70.87,0c-23.34,0-48,16.24-48,34,0,27.33,44.52,25.43,44.52,45.29,0,13.61-14.72,24.15-30.44,24.15-12.39,0-21.14-4.62-21.14-12.56,0-5.41,6.66-10,11.68-10,2.82,0,4.86,1.59,4.86,4.12,0,3.21-3.4,2.85-3.4,5.75,0,2.4,3.73,4.95,9,4.95,9,0,14-5.87,14-12.65,0-7.5-8.07-15.61-22.1-15.56S1.8,77.74.17,89.66C-1.93,105.11,15.37,116,36,116c23,0,50.43-14,50.89-34.74C87.5,52.26,41.53,52.67,40.4,32.23Z"/><path class="a" d="M121.68,46.24a3.14,3.14,0,0,0,2.87-1.59,76.93,76.93,0,0,1,9.71-14.42,2.22,2.22,0,0,0,.1-2.93c-2.52-2.64-5.38-4.64-8.67-4.64-6.06,0-13.09,9.12-13.09,15.78C112.6,43.59,116.88,45.6,121.68,46.24Z"/><path class="a" d="M206,57a23.59,23.59,0,0,0-20.93,12c1.36-8.39-3.43-14.07-9.15-14.07a14.41,14.41,0,0,0-5.25,1.19,1.79,1.79,0,0,0-.79,2.55A19.66,19.66,0,0,1,171.82,68c0,8.89-8.08,19.56-9,29.78-.73,8.26,4.69,10.67,11.65,10.33a2,2,0,0,0,2-1.88c.81-15.9,11.21-38,22.1-38,1.3,0,1.92,1,1.92,2.22C200.51,76.75,190,86.69,190,98c0,8.22,3.49,9.88,9.61,10.28,1.09.07,3.76-.83,3.89-1.91,2-16.81,13.17-29.4,13.17-39.11A10.75,10.75,0,0,0,206,57Z"/><path class="a" d="M301.47,20.48c-.18-6.23-4.87-10.64-11-9.91A2.61,2.61,0,0,0,288.48,13c-1.23,20.42-18.93,51.48-23.11,70.29-4-18.6-5-41.5-5.61-61.49-.3-9.59-4.81-13.05-10-13.05s-5.58,1.75-6.83,6.11c-.57,2-4.13,15.65-9.5,29.94C228.8,57.06,224,70.7,218,83.75s-7.12,17.68-6.61,20.35.69,4.18,6.9,4.18,8.53-4.6,11.44-12.16c3.15-8.16,14.91-44.46,18.49-51.75,3.12,46.56,5,65.26,24.61,63.69a2.22,2.22,0,0,0,2-2.21C275,73.91,302.17,42.66,301.47,20.48Z"/><path class="a" d="M148,111.36c3.89-8.66,7.62-18.36,11.43-28.78a2.4,2.4,0,0,0-1-2.86,15.47,15.47,0,0,0-6-1.72c-2,0-3,.63-3.63,2.2C146.39,86.05,140.41,99,135.41,99c-2.85,0-4.18-2.63-4.18-6.13,0-9,11.39-26.39,17.69-26.39,2.55,0,3.73,1.39,3.73,3.74,0,2-.81,4.12,1.57,4.12,4.25,0,7.57-4.29,7.57-9.06,0-6-6.71-11.72-13.4-11.72-16.13,0-29.94,22.29-29.94,37,0,.3,0,.61,0,.91-1.79,3.56-4.57,6.9-7.08,6.9-2.16,0-4-1.67-4-4.86,0-7.64,6.82-23.77,11.19-31.56a3.25,3.25,0,0,0-.14-3.31,19,19,0,0,0-11.21-6.33,3.13,3.13,0,0,0-3,1.32c-5.51,9-11.62,28.36-11.62,38.19s5.28,16.51,12.72,16.51c6.17,0,11.27-3.73,14.72-9.11,2.22,5.64,6.66,9.14,12.09,9.14a6.86,6.86,0,0,0,5.26-2.36c-.67,1.71-1.42,3.63-2.27,5.69a82.1,82.1,0,0,0-26.6,6.27C96.18,123.37,88.29,131,88.29,138.39c0,8.87,6.64,14.12,17,14.12,17.06,0,28.83-13,39.12-33.54,12.57.59,25.31,6.86,31.61,14.86a1.57,1.57,0,0,0,1.17.49c4.15-.34,6.69-3.32,6.69-7.43C183.84,116.7,160.91,112.11,148,111.36Zm-25.26,22.27a21.94,21.94,0,0,1-16.46,7.91c-3.35,0-6.45-1.92-5.93-4.73,1.75-9.39,15.38-15.36,31.21-17.24A65.47,65.47,0,0,1,122.71,133.62Z"/><path class="a" d="M417.83,57.1c-8.29,2.82-21.45,2.16-29.2-1-1-.4-1.31,0-1,.91a24.59,24.59,0,0,1,1.24,8c0,10.2-12.08,35.51-20,35.51-1.1,0-1.94-1.34-1.94-2.67,0-3.52,5-11.94,8.4-17a2.54,2.54,0,0,0-.09-3,10,10,0,0,0-6.44-2.92c-2.52,0-4.67.55-5.14,3.13C362.63,83.61,354,99,349.21,99c-1.93,0-2.58-1.52-2.58-3.61,0-8.27,12.81-25.49,22.6-32.52a1.73,1.73,0,0,0,.44-2.55c-2.27-2.58-6.16-4.75-8.87-4.75-3.37,0-7.82,3.52-12,8.72-4.8,4.57-10.41,9.51-15.66,12.55a32.88,32.88,0,0,0,2.56-11.38c0-6.46-3.45-10.35-9.78-10.35a16.75,16.75,0,0,0-13.11,6.76,14.83,14.83,0,0,0-8-2.08c-6.59,0-21.47,16.7-21.47,30.14,0,10.63,5.84,18.27,15.78,18.27,11.8,0,23-11,29.8-22.76a49.57,49.57,0,0,0,10.4-5.15,40.43,40.43,0,0,0-3.45,14.83c0,7.87,6.47,12.58,12.85,12.58A11.32,11.32,0,0,0,359,101c0,4.47,4.57,7.21,10.44,7.21,15.87,0,30.51-23.26,30.51-40.41,7.56,2,18.29-3.93,19.54-9.49C419.75,57.26,418.79,56.76,417.83,57.1ZM300.65,97.24c-2.17,0-3.8-1.55-3.8-4.36,0-8.63,7-15.44,12.3-20.5,0,.28,0,.54,0,.82,0,6.83,2.93,11.12,7.18,12.84C311.4,92,305.43,97.24,300.65,97.24Zm20.57-17.91c-2.15-.72-3.51-2.21-3.51-4.25,0-3.66,4.11-7.58,6.49-7.58,1.2,0,1.58.78,1.58,1.95C325.78,71.21,324,75,321.23,79.33Z"/></svg>