<?xml version="1.0" encoding="UTF-8"?>
<svg id="_Слой_1" data-name="Слой 1" xmlns="http://www.w3.org/2000/svg" viewBox="0 0 890.9 180.69">
  <defs>
    <style>
      .cls-1 {
        stroke-width: 0px;
      }
    </style>
  </defs>
  <path class="cls-1" d="m82.65,142.69c-5.83,0-10.52-1.49-14.06-4.46-3.55-2.97-5.64-7.25-6.27-12.83h-.95c-1.78,6.46-5.29,11.34-10.54,14.63-5.26,3.29-11.69,4.94-19.29,4.94-9.5,0-17.13-2.57-22.9-7.7-5.77-5.13-8.65-12.32-8.65-21.57,0-10.26,3.73-17.86,11.21-22.8,7.47-4.94,18.43-7.41,32.87-7.41h15.77v-4.94c0-5.82-1.36-10.23-4.08-13.21-2.73-2.97-7.31-4.46-13.77-4.46-5.96,0-10.77,1.14-14.44,3.42-3.68,2.28-6.84,5.26-9.5,8.93l-15.39-13.68c3.29-5.57,8.46-10.17,15.48-13.77,7.03-3.61,16.06-5.42,27.08-5.42,13.42,0,23.91,3.07,31.44,9.21,7.53,6.15,11.31,15.42,11.31,27.84v42.94h10.83v20.33h-16.15Zm-40.47-16.15c4.94,0,9.12-1.2,12.54-3.61,3.42-2.41,5.13-5.89,5.13-10.45v-11.78h-15.01c-11.53,0-17.29,3.87-17.29,11.59v3.8c0,3.42,1.33,6.02,3.99,7.79,2.66,1.77,6.2,2.66,10.64,2.66Z"/>
  <path class="cls-1" d="m118.18,120.65h22.61v-53.96h-22.61v-22.04h50.73v27.74h1.33c.88-3.54,2.12-7,3.71-10.35,1.58-3.35,3.61-6.33,6.08-8.93,2.47-2.59,5.48-4.66,9.03-6.17,3.54-1.52,7.72-2.28,12.54-2.28h9.31v25.84h-20.9c-6.97,0-12.23,2.05-15.77,6.15-3.55,4.1-5.32,9.12-5.32,15.05v28.96h32.3v22.04h-83.03v-22.04Z"/>
  <path class="cls-1" d="m279.11,144.97c-7.73,0-14.66-1.17-20.81-3.52-6.15-2.34-11.34-5.73-15.58-10.17-4.25-4.43-7.5-9.81-9.79-16.15-2.28-6.33-3.42-13.49-3.42-21.47s1.14-15.13,3.42-21.47c2.28-6.33,5.54-11.71,9.79-16.15,4.24-4.43,9.43-7.82,15.58-10.17,6.14-2.34,13.02-3.51,20.61-3.51,10.76,0,19.41,2.19,25.94,6.55,6.52,4.37,11.5,10.17,14.92,17.39l-21.66,11.78c-1.78-3.8-4.09-6.96-6.94-9.5-2.85-2.53-6.94-3.8-12.26-3.8-6.46,0-11.43,1.87-14.92,5.6-3.48,3.74-5.22,8.83-5.22,15.29v15.96c0,6.46,1.74,11.56,5.22,15.29,3.48,3.74,8.58,5.61,15.3,5.61,5.44,0,9.72-1.26,12.82-3.8,3.1-2.53,5.73-5.82,7.89-9.88l21.28,12.16c-3.55,7.22-8.71,13.02-15.48,17.38-6.78,4.37-15.68,6.56-26.69,6.56Z"/>
  <path class="cls-1" d="m344.46,2.09h28.12v60.42h1.14c1.14-2.78,2.53-5.38,4.18-7.79,1.64-2.4,3.64-4.53,5.98-6.36,2.34-1.83,5.06-3.29,8.17-4.37,3.1-1.07,6.62-1.61,10.55-1.61,4.68,0,8.99.79,12.92,2.38,3.92,1.58,7.28,3.96,10.07,7.12,2.78,3.17,4.97,7.03,6.56,11.59,1.58,4.56,2.38,9.82,2.38,15.77v63.46h-28.12v-59.66c0-12.66-5.51-19-16.53-19-2.16,0-4.27.29-6.36.85-2.09.57-3.96,1.46-5.6,2.66-1.65,1.21-2.94,2.69-3.9,4.46-.95,1.78-1.42,3.87-1.42,6.27v64.41h-28.12V2.09Z"/>
  <path class="cls-1" d="m463.97,120.65h31.16v-53.96h-31.16v-22.04h59.28v76h28.88v22.04h-88.16v-22.04Zm45.22-88.54c-6.33,0-10.74-1.3-13.21-3.9-2.47-2.59-3.71-5.73-3.71-9.4v-5.51c0-3.8,1.24-6.96,3.71-9.5,2.47-2.53,6.87-3.8,13.21-3.8s10.74,1.27,13.21,3.8c2.47,2.54,3.71,5.7,3.71,9.5v5.51c0,3.68-1.24,6.81-3.71,9.4-2.47,2.6-6.87,3.9-13.21,3.9Z"/>
  <path class="cls-1" d="m624.71,142.69c-10.13,0-17.67-2.65-22.61-7.96-4.94-5.31-7.41-12.07-7.41-20.28v-47.76h-26.6v-22.04h17.29c4.18,0,7.16-.82,8.93-2.47,1.77-1.65,2.66-4.69,2.66-9.12V10.07h25.84v34.58h38.19v22.04h-38.19v53.96h38.19v22.04h-36.29Z"/>
  <path class="cls-1" d="m733.77,144.97c-16.47,0-28.95-4.56-37.43-13.68-8.49-9.12-12.73-21.53-12.73-37.24,0-7.98,1.11-15.17,3.33-21.57,2.21-6.39,5.38-11.84,9.5-16.34,4.11-4.49,9.12-7.91,15.01-10.26,5.89-2.34,12.51-3.51,19.86-3.51s13.93,1.17,19.76,3.51c5.82,2.35,10.76,5.67,14.82,9.98,4.05,4.31,7.19,9.53,9.41,15.68,2.21,6.15,3.33,13.02,3.33,20.61v8.36h-67.07v1.71c0,6.33,1.96,11.43,5.89,15.29,3.92,3.87,9.69,5.79,17.29,5.79,5.82,0,10.83-1.11,15.01-3.33,4.18-2.21,7.79-5.16,10.83-8.83l15.2,16.53c-3.8,4.69-9.12,8.74-15.96,12.16-6.84,3.42-15.52,5.13-26.03,5.13Zm-2.28-82.46c-6.08,0-10.92,1.87-14.54,5.6-3.61,3.74-5.42,8.77-5.42,15.11v1.52h39.52v-1.52c0-6.46-1.74-11.52-5.23-15.2-3.49-3.67-8.26-5.51-14.34-5.51Z"/>
  <path class="cls-1" d="m862.78,124.65h-1.33c-2.54,6.01-6.05,10.89-10.54,14.66-4.5,3.77-10.67,5.65-18.53,5.65-5.45,0-10.42-1.02-14.91-3.04-4.5-2.03-8.36-5.13-11.59-9.31-3.23-4.18-5.76-9.5-7.6-15.96-1.84-6.46-2.75-14.12-2.75-22.99s.92-16.53,2.75-22.99c1.83-6.46,4.37-11.78,7.6-15.96,3.23-4.18,7.09-7.28,11.59-9.31,4.49-2.02,9.47-3.04,14.91-3.04,3.92,0,7.41.51,10.45,1.53s5.73,2.43,8.08,4.22c2.34,1.79,4.37,3.93,6.08,6.42,1.71,2.49,3.2,5.21,4.46,8.15h1.33v-18.04h28.12v136.04h-28.12v-56.04Zm-18.24-1.72c4.94,0,9.21-1.19,12.83-3.59,3.61-2.39,5.42-6.17,5.42-11.33v-28.7c0-5.16-1.8-8.93-5.42-11.33-3.61-2.39-7.88-3.59-12.83-3.59-6.33,0-11.21,1.92-14.63,5.76-3.42,3.84-5.13,9.16-5.13,15.95v15.1c0,6.8,1.71,12.12,5.13,15.95s8.29,5.76,14.63,5.76Z"/>
</svg>